<?xml version="1.0" standalone="no"?>
<!DOCTYPE svg PUBLIC "-//W3C//DTD SVG 20010904//EN"
 "http://www.w3.org/TR/2001/REC-SVG-20010904/DTD/svg10.dtd">
<svg version="1.0" xmlns="http://www.w3.org/2000/svg"
 width="1280.000000pt" height="1280.000000pt" viewBox="0 0 1280.000000 1280.000000"
 preserveAspectRatio="xMidYMid meet">
<metadata>
Created by potrace 1.16, written by Peter Selinger 2001-2019
</metadata>
<g transform="translate(0.000000,1280.000000) scale(0.100000,-0.100000)"
fill="#000000" stroke="none">
<path d="M2700 12784 c-684 -93 -1293 -472 -1677 -1044 -169 -252 -299 -567
-357 -868 -36 -183 -632 -3764 -651 -3905 -20 -154 -20 -450 0 -604 68 -522
295 -994 660 -1372 305 -316 704 -547 1134 -656 293 -73 326 -75 1929 -75 776
0 1412 -1 1412 -3 0 -2 -22 -62 -49 -134 -138 -366 -223 -724 -278 -1173 -26
-212 -26 -875 0 -1075 50 -381 133 -677 268 -950 286 -576 784 -925 1322 -925
618 0 925 340 1022 1132 20 167 35 430 35 624 0 385 59 644 220 969 154 311
339 567 634 872 303 315 789 700 1234 977 l42 26 0 -93 c0 -211 90 -411 254
-564 84 -79 176 -133 296 -175 l95 -33 955 0 955 0 94 33 c272 95 462 298 532
570 19 74 19 162 19 3927 0 3806 0 3853 -20 3931 -11 43 -41 122 -67 174 -40
81 -62 109 -148 195 -86 86 -114 108 -195 148 -183 91 -126 87 -1170 87 -1044
0 -987 4 -1170 -87 -81 -40 -109 -62 -195 -148 -86 -86 -108 -114 -148 -195
-76 -152 -87 -214 -87 -476 l0 -223 -132 66 c-1024 506 -2397 857 -3903 997
-573 54 -933 66 -1910 65 -676 -1 -872 -4 -955 -15z m1925 -534 c1049 -43
1956 -166 2840 -386 754 -188 1489 -460 1997 -741 l138 -76 0 -2907 0 -2906
-42 -24 c-114 -62 -360 -214 -508 -313 -642 -427 -1198 -940 -1553 -1433 -239
-332 -426 -723 -504 -1054 -43 -182 -53 -286 -63 -620 -19 -644 -70 -941 -188
-1111 -77 -110 -169 -145 -357 -136 -171 8 -316 67 -471 191 -300 240 -482
651 -556 1251 -17 135 -17 695 0 845 68 612 211 1086 474 1565 30 54 33 68 33
140 -1 94 -20 140 -84 198 -79 71 71 66 -1834 70 -1894 4 -1771 0 -2021 66
-836 220 -1412 993 -1383 1856 5 151 24 272 327 2085 176 1059 330 1966 342
2015 143 616 600 1124 1199 1333 101 35 288 79 391 91 103 12 1535 13 1823 1z
m7475 -11 c55 -25 105 -71 133 -124 l22 -40 3 -3790 c2 -3361 0 -3795 -13
-3835 -21 -62 -67 -115 -129 -148 l-51 -27 -845 -3 c-964 -3 -916 -7 -1001 78
-88 88 -79 -333 -77 3935 3 3674 4 3791 22 3825 36 68 97 120 166 141 14 4
408 8 875 8 834 1 851 0 895 -20z"/>
</g>
</svg>
